<svg id="Capa_1" data-name="Capa 1" xmlns="http://www.w3.org/2000/svg" viewBox="0 0 23.58 34.53"><defs><style>.cls-1{fill:#fff;stroke:#fff;stroke-miterlimit:10;}</style></defs><g id="Capa_2" data-name="Capa 2"><g id="Capa_1-2" data-name="Capa 1-2"><path class="cls-1" d="M18.37,4.74a1.38,1.38,0,0,1,.81.65,1.17,1.17,0,0,1-.33,1.43l-5.15,4.7L6.18,18.38c-.16.15-.11.21,0,.32L18.81,30.21a1.23,1.23,0,0,1,.48.95,1.09,1.09,0,0,1-.63,1,1.06,1.06,0,0,1-1.21-.12c-.43-.35-.83-.74-1.25-1.11L3.66,19.51a1.28,1.28,0,0,1,0-2L17.24,5.16a1.93,1.93,0,0,1,.7-.42Z"/></g></g></svg>