<svg xmlns="http://www.w3.org/2000/svg" viewBox="0 0 57.48 78.08"><defs><style>.cls-1{fill:#ffd119;}</style></defs><g id="Capa_2" data-name="Capa 2"><g id="Capa_1-2" data-name="Capa 1"><path class="cls-1" d="M28.28,78.08a10.75,10.75,0,0,1-2.39-2.51A198.47,198.47,0,0,1,7.33,49.62,69.87,69.87,0,0,1,1.72,38.45,26.78,26.78,0,0,1,.49,23.92C2.4,13.79,8.12,6.48,17.55,2.43,26.37-1.36,35.13-.68,43.44,4.21A27.6,27.6,0,0,1,56.09,20.15,27.86,27.86,0,0,1,54.73,41,146.78,146.78,0,0,1,39.4,65.65q-4.32,5.84-9,11.38a3.57,3.57,0,0,1-1.33,1Zm.46-34.38A14.9,14.9,0,1,0,13.82,28.8,15,15,0,0,0,28.74,43.7Z"/></g></g></svg>